Coordinates
version=1
nRows=5
nColumns=63
inDegrees=yes

Units are S.I. units (second, meters, Newtons, ...)
If the header above contains a line with 'inDegrees', this indicates whether rotational values are in degrees (yes) or radians (no).

endheader
time	pelvis_tilt	pelvis_list	pelvis_rotation	pelvis_tx	pelvis_ty	pelvis_tz	hip_flexion_r	hip_adduction_r	hip_rotation_r	knee_angle_r	knee_angle_r_beta	ankle_angle_r	subtalar_angle_r	mtp_angle_r	hip_flexion_l	hip_adduction_l	hip_rotation_l	knee_angle_l	knee_angle_l_beta	ankle_angle_l	subtalar_angle_l	mtp_angle_l	L5_S1_Flex_Ext	L5_S1_Lat_Bending	L5_S1_axial_rotation	L4_L5_Flex_Ext	L4_L5_Lat_Bending	L4_L5_axial_rotation	L3_L4_Flex_Ext	L3_L4_Lat_Bending	L3_L4_axial_rotation	L2_L3_Flex_Ext	L2_L3_Lat_Bending	L2_L3_axial_rotation	L1_L2_Flex_Ext	L1_L2_Lat_Bending	L1_L2_axial_rotation	L1_T12_Flex_Ext	L1_T12_Lat_Bending	L1_T12_axial_rotation	Abs_r3	Abs_r2	Abs_r1	Abs_t1	Abs_t2	neck_flexion	neck_bending	neck_rotation	arm_flex_r	arm_add_r	arm_rot_r	elbow_flex_r	pro_sup_r	wrist_flex_r	wrist_dev_r	arm_flex_l	arm_add_l	arm_rot_l	elbow_flex_l	pro_sup_l	wrist_flex_l	wrist_dev_l
      8.59322034	     -2.40909514	     -2.84470492	    101.34031780	      0.13902112	      1.00450166	      0.14224231	      9.83076142	     -4.45211899	     -5.57324245	     15.82170088	      0.27614077	     18.50206836	    -13.66606578	      0.00000000	     10.14545779	      2.69493938	     -9.22313857	     14.86439209	      0.25943258	     15.81959313	     14.46232464	      0.00000000	     -0.07725026	     -1.79898177	     -1.32806257	     -0.14346145	     -2.39264575	     -1.41106648	     -0.12691445	     -4.37404426	     -1.41106648	     -0.08828932	     -4.37404426	     -1.16205475	     -0.07173459	     -3.66848362	     -1.07905084	     -0.04414080	     -2.78662275	     -0.99604692	     -0.55179086	    -20.35044153	     -7.38628557	      0.00000000	      0.00000000	     18.13865009	     15.05753295	    -30.11658065	     24.34279637	    -22.33054235	    -42.94880362	    121.67511934	     87.21900134	     -8.94420870	      7.13263540	    191.47307879	   -155.25057636	    301.78831987	      1.14300387	      2.53322470	    -13.15745471	     -5.47556559
      8.61016949	     -2.53149636	     -2.89878072	    100.57805031	      0.13822503	      1.00416783	      0.14224012	      9.81954299	     -4.60232051	     -4.99372529	     15.62365957	      0.27268430	     18.14832793	    -13.58817776	      0.00000000	     10.19315937	      2.85056898	     -9.71944944	     14.91764347	      0.26036200	     15.90406837	     14.20720280	      0.00000000	     -0.05958765	     -1.77939305	     -1.23459149	     -0.11066023	     -2.36659275	     -1.31175345	     -0.09789655	     -4.32641626	     -1.31175345	     -0.06810273	     -4.32641626	     -1.08026755	     -0.05533309	     -3.62853831	     -1.00310558	     -0.03404838	     -2.75627983	     -0.92594362	     -0.42562863	    -20.12885005	     -6.86642747	      0.00000000	      0.00000000	     17.08605273	     14.01540560	    -28.84708384	     19.13004393	    -19.96924293	    -40.07367353	    128.05380459	     85.76622989	     -5.12612925	      5.46050321	    193.94621963	   -158.33694511	    307.02469684	      0.81891650	      1.75955980	    -12.03362091	     -6.82739870
      8.62711864	     -2.41991925	     -2.88612331	     99.88745400	      0.13662365	      1.00362251	      0.14227039	      9.70796487	     -4.56681295	     -4.72076148	     15.35173415	      0.26793831	     17.87074734	    -13.23614102	      0.00000000	     10.22122669	      2.82039965	     -9.95235358	     15.02888135	      0.26230346	     16.25512766	     13.87669625	      0.00000000	     -0.05103492	     -1.70871879	     -1.08873134	     -0.09477695	     -2.27259599	     -1.15677705	     -0.08384527	     -4.15457886	     -1.15677705	     -0.05832781	     -4.15457886	     -0.95263993	     -0.04739103	     -3.48441935	     -0.88459422	     -0.02916135	     -2.64680540	     -0.81654851	     -0.36453732	    -19.32936865	     -6.05519711	      0.00000000	      0.00000000	     16.02150001	     12.56454908	    -27.05069720	     13.65823658	    -18.68007246	    -35.99498989	    133.00689907	     85.37759733	     -2.54279482	      3.71486886	    196.43913383	   -161.32629118	    308.73548186	      0.66310817	      1.54717662	    -11.53678542	     -9.29581263
      8.64406780	     -2.13825429	     -2.91463508	     98.97388359	      0.13438574	      1.00313714	      0.14246211	      9.71917321	     -4.41054944	     -4.46418419	     15.12237163	      0.26393518	     17.64410540	    -12.56800449	      0.00000000	     10.25919156	      2.69231456	    -10.11061866	     15.03176893	      0.26235386	     16.51965943	     13.24836204	      0.00000000	     -0.02853628	     -1.60096934	     -0.84064164	     -0.05299472	     -2.12928922	     -0.89318174	     -0.04688225	     -3.89259684	     -0.89318174	     -0.03261411	     -3.89259684	     -0.73556144	     -0.02649879	     -3.26469667	     -0.68302133	     -0.01630563	     -2.47990150	     -0.63048123	     -0.20383177	    -18.11048532	     -4.67539662	      0.00000000	      0.00000000	     14.93078432	     11.35676307	    -24.82324372	      8.39018342	    -18.18400010	    -31.81551353	    135.49533221	     85.78889767	      3.73743037	      0.45896897	    199.18801901	   -164.06302550	    312.96160860	      0.44158293	      1.16913293	    -12.72470644	    -11.78905588
      8.66101695	     -1.45711019	     -2.83761451	     98.19377876	      0.13091497	      1.00280221	      0.14284033	      9.50594121	     -3.89855172	     -4.49612858	     14.56493916	      0.25420614	     17.30406421	    -11.56704517	      0.00000000	     10.23405653	      2.24593351	     -9.90747849	     15.01571397	      0.26207365	     16.89168338	     12.43293172	      0.00000000	     -0.02005833	     -1.42216997	     -0.57874743	     -0.03725032	     -1.89148606	     -0.61491914	     -0.03295383	     -3.45786407	     -0.61491914	     -0.02292467	     -3.45786407	     -0.50640400	     -0.01862617	     -2.90008900	     -0.47023228	     -0.01146133	     -2.20294128	     -0.43406057	     -0.14327464	    -16.08787114	     -3.21881956	      0.00000000	      0.00000000	     14.06231864	      9.73853083	    -21.82165419	      3.67354657	    -18.77687197	    -26.22978264	    136.78787487	     87.22779368	      6.24754743	      1.01813703	    202.04691300	   -166.68959390	    315.59921103	      0.33351028	      1.08147814	    -15.88473250	    -15.24242954
